<svg width="535" height="505" viewBox="0 0 535 505" fill="none" xmlns="http://www.w3.org/2000/svg">
<rect x="0.0134277" y="106.028" width="534.557" height="70.6853" rx="24" fill="white"/>
<rect x="0.0134277" y="322.502" width="534.557" height="70.6853" rx="24" fill="white"/>
<rect x="498.124" width="35.3426" height="508.05" rx="10" transform="rotate(11.4114 498.124 0)" fill="#CCCCCC"/>
<rect x="365.589" width="35.3426" height="508.05" rx="10" transform="rotate(11.4114 365.589 0)" fill="#0099FF"/>
<rect x="233.054" width="35.3426" height="508.05" rx="10" transform="rotate(11.4114 233.054 0)" fill="#0099FF"/>
<rect x="100.519" width="35.3426" height="508.05" rx="10" transform="rotate(11.4114 100.519 0)" fill="#CCCCCC"/>
<path d="M214.993 381.297L225.282 330.612C226.181 326.184 230.074 323.002 234.592 323.002H242.881C248.887 323.002 253.386 328.506 252.191 334.392L241.902 385.077C241.004 389.505 237.111 392.687 232.592 392.687H224.303C218.297 392.687 213.798 387.183 214.993 381.297Z" fill="#0099FF" stroke="#0099FF"/>
<path d="M339.825 381.297L350.114 330.612C351.013 326.184 354.906 323.002 359.424 323.002H367.713C373.719 323.002 378.218 328.505 377.023 334.391L366.735 385.077C365.836 389.505 361.943 392.687 357.424 392.687H349.135C343.129 392.687 338.63 387.183 339.825 381.297Z" fill="#0099FF" stroke="#0099FF"/>
<rect x="233.592" y="322.502" width="124.832" height="70.6853" fill="#0099FF"/>
<path d="M157.561 164.823L167.85 114.138C168.749 109.71 172.642 106.528 177.16 106.528H185.449C191.455 106.528 195.954 112.032 194.759 117.918L184.471 168.603C183.572 173.031 179.679 176.213 175.161 176.213H166.871C160.865 176.213 156.366 170.709 157.561 164.823Z" fill="#0099FF" stroke="#0099FF"/>
<path d="M282.393 164.823L292.682 114.138C293.58 109.71 297.474 106.528 301.992 106.528H310.281C316.287 106.528 320.786 112.032 319.591 117.918L309.302 168.603C308.404 173.031 304.51 176.213 299.992 176.213H291.703C285.697 176.213 281.198 170.709 282.393 164.823Z" fill="#0099FF" stroke="#0099FF"/>
<rect x="176.16" y="106.028" width="124.832" height="70.6853" fill="#0099FF"/>
</svg>
